<svg width="158" height="208" viewBox="0 0 158 208" fill="none" xmlns="http://www.w3.org/2000/svg">
<path d="M88.3283 81.4894L147.594 94.0263L82.6297 99.155L27.9233 88.3277L88.3283 81.4894Z" fill="#E9E9FF"/>
<path d="M102.004 92.3175L111.122 14.8167L124.798 23.3645L116.82 94.0271L102.004 92.3175Z" fill="#A6A7E1"/>
<path d="M124.799 23.3677H135.056L125.939 94.0302H116.821L124.799 23.3677Z" fill="#AFB0E5"/>
<path d="M114.54 93.4578L121.948 32.4829L117.959 34.7623L111.691 92.888L114.54 93.4578Z" fill="#D59FC6"/>
<path d="M121.949 13.6765L111.122 14.8162L124.799 23.3641H135.056L121.949 13.6765Z" fill="#EDEDFF"/>
<path d="M147.594 172.099L157.281 175.518V200.022L147.594 199.452V172.099Z" fill="#DFE0FC"/>
<path d="M121.948 32.4826L111.121 27.3539L117.959 34.7621L121.948 32.4826Z" fill="#CFB3DD"/>
<path d="M103.144 91.748L111.122 27.3539L120.126 33.6223L114.542 93.4576L103.144 91.748Z" fill="#CD7498"/>
<path d="M80.9202 1.71143L66.6738 3.421L74.6518 86.6204L90.038 88.8999L80.9202 1.71143Z" fill="#A6A7E1"/>
<path d="M90.6064 0L99.1543 88.3282L90.0365 88.898L80.9188 1.70958L90.6064 0Z" fill="#C7C9F1"/>
<path d="M80.3488 17.6663L70.6612 18.806L77.4995 86.6192L87.757 88.3288L80.3488 17.6663Z" fill="#D59FC6"/>
<path d="M82.6295 99.1558L27.9231 88.3285V177.227L82.6295 184.635V99.1558Z" fill="#A6A7E1"/>
<path d="M59.2657 115.684V105.427L72.9423 107.706L76.9313 108.276V130.501L72.9423 131.07L59.2657 128.791V120.243L46.1589 117.964V125.372L30.2029 123.092V100.298L46.1589 102.577V113.975L59.2657 115.684Z" fill="#171817"/>
<path d="M64.9626 116.823V109.984L71.8009 111.124V118.532L64.9626 116.823Z" fill="#D5D5D5"/>
<path d="M34.1913 103.145L41.0296 104.285V111.123C41.0296 111.579 36.4707 111.313 34.1913 111.123V103.145Z" fill="#D5D5D5"/>
<path d="M82.6297 184.636V99.1569L147.594 94.0282L148.733 184.636H82.6297Z" fill="#BEC0ED"/>
<ellipse cx="5.12873" cy="9.11775" rx="5.12873" ry="9.11775" transform="matrix(-1 0 0 1 55.8463 136.2)" fill="#883D69"/>
<path d="M27.923 169.25L-0.000110626 170.96L23.3641 176.089L49.5776 173.239L27.923 169.25Z" fill="#C8C9F1"/>
<path d="M23.3647 175.517L0.000427246 170.958V194.892L23.3647 200.59V175.517Z" fill="#A6A8E1"/>
<path d="M49.5776 173.238L23.3641 175.518V200.592L49.5776 198.882V173.238Z" fill="url(#paint0_linear_111_638)"/>
<path d="M62.1147 176.658L39.8902 178.368L62.6846 184.066L157.281 175.518L148.733 173.809L82.6296 179.507L62.1147 176.658Z" fill="#DFE0FC"/>
<path d="M75.7893 86.6192L69.5209 18.8059H79.7783L86.0468 88.3287L75.7893 86.6192Z" fill="#CD7498"/>
<path d="M39.8912 203.441L62.6856 208V183.496L39.8912 178.367V203.441Z" fill="#A6A8E1"/>
<path d="M62.6846 207.999V183.495L157.281 175.517V200.021L62.6846 207.999Z" fill="#BFC0ED"/>
<defs>
<linearGradient id="paint0_linear_111_638" x1="50.1475" y1="180.646" x2="30.7723" y2="189.764" gradientUnits="userSpaceOnUse">
<stop stop-color="#A6A7E1"/>
<stop offset="1" stop-color="#B5B6E8"/>
</linearGradient>
</defs>
</svg>
