<svg width="560" height="565" viewBox="0 0 560 565" fill="none" xmlns="http://www.w3.org/2000/svg">
<mask id="mask0_1_19103" style="mask-type:alpha" maskUnits="userSpaceOnUse" x="332" y="258" width="183" height="214">
<path d="M348.272 295.051L435.338 259.854C446.76 255.237 459.842 259.645 466.14 270.233L511.384 346.296C513.843 350.429 515.055 355.184 514.874 359.989L513.12 406.785C512.766 416.203 507.137 424.619 498.568 428.542L410.143 469.018C398.294 474.442 384.268 469.837 377.939 458.446L335.809 382.611C333.749 378.904 332.668 374.733 332.668 370.491V318.189C332.668 308.017 338.841 298.863 348.272 295.051Z" fill="#1F2025"/>
</mask>
<g mask="url(#mask0_1_19103)">
<path d="M348.272 295.051L435.338 259.854C446.76 255.237 459.842 259.645 466.14 270.233L511.384 346.296C513.843 350.429 515.055 355.184 514.874 359.989L513.12 406.785C512.766 416.203 507.137 424.619 498.568 428.542L410.143 469.018C398.294 474.442 384.268 469.837 377.939 458.446L335.809 382.611C333.749 378.904 332.668 374.733 332.668 370.491V318.189C332.668 308.017 338.841 298.863 348.272 295.051Z" fill="#1F2025"/>
<g filter="url(#filter0_f_1_19103)">
<path d="M491.69 441.262L519.497 416.931L521.235 415.193L463.883 317.001C463.883 336.118 456.063 344.807 435.208 344.807L491.69 441.262Z" fill="url(#paint0_linear_1_19103)"/>
</g>
<g filter="url(#filter1_f_1_19103)">
<path d="M469.092 263.993L466.485 326.558L522.968 417.799V349.151L469.092 263.993Z" fill="#292933"/>
</g>
<g filter="url(#filter2_f_1_19103)">
<path d="M357.869 373.486C364.821 374.181 410.586 356.975 444.765 340.465L506.461 443.871L388.282 503.83L324.848 393.472L322.241 299.624L348.31 288.327C330.931 343.941 349.179 372.617 357.869 373.486Z" fill="#0E0E10"/>
</g>
<g filter="url(#filter3_f_1_19103)">
<rect x="434.926" y="225.759" width="39.9722" height="114.703" rx="15.9445" transform="rotate(4.20487 434.926 225.759)" fill="#2D2E32"/>
</g>
</g>
<g clip-path="url(#clip0_1_19103)">
<rect x="222.172" y="86" width="156.951" height="156.951" rx="78.4755" fill="#37363C"/>
<g filter="url(#filter4_f_1_19103)">
<circle cx="329.966" cy="100.659" r="99.1724" fill="#B0AFBD"/>
</g>
<g filter="url(#filter5_f_1_19103)">
<circle cx="300.382" cy="164.21" r="76.6134" stroke="#7F88AC" stroke-width="3.19223"/>
</g>
</g>
<g clip-path="url(#clip1_1_19103)">
<rect x="45.0002" y="280.984" width="156.951" height="156.951" rx="78.4755" fill="#340D88"/>
<g filter="url(#filter6_f_1_19103)">
<circle cx="152.798" cy="295.644" r="99.1724" fill="#8928D7"/>
</g>
<g filter="url(#filter7_f_1_19103)">
<circle cx="123.21" cy="359.194" r="76.6134" stroke="#3F12B1" stroke-width="3.19223"/>
</g>
</g>
<mask id="mask1_1_19103" style="mask-type:alpha" maskUnits="userSpaceOnUse" x="123" y="173" width="308" height="306">
<path d="M205.497 336.587C186.591 277.006 236.527 256.666 272.16 252.733C279.792 251.89 288.186 250.599 290.998 243.455C296.069 230.568 295.48 206.534 293.14 190.201C291.708 180.209 283.267 173.834 273.175 173.645C259.92 173.397 248.445 174.788 231.035 178.571C105.739 215.282 69.9102 405.397 231.035 466.67C344.359 509.765 430.549 421.181 430.549 358.932C430.549 340.577 369.114 305.676 344.359 366.913C329.196 404.422 230.06 413.998 205.497 336.587Z" fill="#D9D9D9"/>
</mask>
<g mask="url(#mask1_1_19103)">
<path d="M205.497 336.587C186.591 277.006 236.527 256.666 272.16 252.733C279.792 251.89 288.186 250.599 290.998 243.455C296.069 230.568 295.48 206.534 293.14 190.201C291.708 180.209 283.267 173.834 273.175 173.645C259.92 173.397 248.445 174.788 231.035 178.571C105.739 215.282 69.9102 405.397 231.035 466.67C344.359 509.765 430.549 421.181 430.549 358.932C430.549 340.577 369.114 305.676 344.359 366.913C329.196 404.422 230.06 413.998 205.497 336.587Z" fill="url(#paint1_linear_1_19103)"/>
<g filter="url(#filter8_f_1_19103)">
<path d="M274.84 233.637C246.908 218.474 193.598 200.598 203.813 250.397C216.582 312.645 345.867 264.762 274.84 233.637Z" fill="#43434C"/>
</g>
<g filter="url(#filter9_f_1_19103)">
<path d="M123.21 249.6C134.383 286.311 199.026 305.464 218.977 282.321C206.627 318.36 212.082 335.626 240.524 362.126L167.103 450.711C71.3366 394.049 92.8843 273.542 123.21 249.6Z" fill="url(#paint2_linear_1_19103)" fill-opacity="0.88"/>
</g>
<g filter="url(#filter10_f_1_19103)">
<path d="M338.689 429.959C285.698 476.566 259.149 435.014 252.498 408.412C231.43 364.998 279.898 339.779 306.766 332.597C339.487 345.632 391.679 383.353 338.689 429.959Z" fill="#202125"/>
</g>
<g filter="url(#filter11_f_1_19103)">
<ellipse cx="281.224" cy="215.284" rx="7.98057" ry="30.3261" fill="#1B1C21"/>
</g>
<g filter="url(#filter12_f_1_19103)">
<ellipse cx="404.73" cy="347.944" rx="41.079" ry="23.9908" transform="rotate(20.5703 404.73 347.944)" fill="#1F1E23"/>
</g>
<g filter="url(#filter13_f_1_19103)">
<ellipse cx="281.224" cy="215.284" rx="7.98057" ry="30.3261" fill="#1B1C21"/>
</g>
<g filter="url(#filter14_f_1_19103)">
<path d="M302.774 185.754C224.884 171.708 183.598 210.76 172.691 232.041C125.446 249.918 146.089 218.74 162.316 200.917C262.552 131.965 297.72 162.078 302.774 185.754Z" fill="#222128"/>
</g>
</g>
<defs>
<filter id="filter0_f_1_19103" x="425.502" y="307.295" width="105.438" height="143.672" filterUnits="userSpaceOnUse" color-interpolation-filters="sRGB">
<feFlood flood-opacity="0" result="BackgroundImageFix"/>
<feBlend mode="normal" in="SourceGraphic" in2="BackgroundImageFix" result="shape"/>
<feGaussianBlur stdDeviation="4.85268" result="effect1_foregroundBlur_1_19103"/>
</filter>
<filter id="filter1_f_1_19103" x="456.78" y="254.287" width="75.8933" height="173.217" filterUnits="userSpaceOnUse" color-interpolation-filters="sRGB">
<feFlood flood-opacity="0" result="BackgroundImageFix"/>
<feBlend mode="normal" in="SourceGraphic" in2="BackgroundImageFix" result="shape"/>
<feGaussianBlur stdDeviation="4.85268" result="effect1_foregroundBlur_1_19103"/>
</filter>
<filter id="filter2_f_1_19103" x="306.99" y="273.076" width="214.722" height="246.005" filterUnits="userSpaceOnUse" color-interpolation-filters="sRGB">
<feFlood flood-opacity="0" result="BackgroundImageFix"/>
<feBlend mode="normal" in="SourceGraphic" in2="BackgroundImageFix" result="shape"/>
<feGaussianBlur stdDeviation="7.62564" result="effect1_foregroundBlur_1_19103"/>
</filter>
<filter id="filter3_f_1_19103" x="417.936" y="217.179" width="65.4348" height="134.485" filterUnits="userSpaceOnUse" color-interpolation-filters="sRGB">
<feFlood flood-opacity="0" result="BackgroundImageFix"/>
<feBlend mode="normal" in="SourceGraphic" in2="BackgroundImageFix" result="shape"/>
<feGaussianBlur stdDeviation="4.85268" result="effect1_foregroundBlur_1_19103"/>
</filter>
<filter id="filter4_f_1_19103" x="196.299" y="-33.008" width="267.334" height="267.334" filterUnits="userSpaceOnUse" color-interpolation-filters="sRGB">
<feFlood flood-opacity="0" result="BackgroundImageFix"/>
<feBlend mode="normal" in="SourceGraphic" in2="BackgroundImageFix" result="shape"/>
<feGaussianBlur stdDeviation="17.2474" result="effect1_foregroundBlur_1_19103"/>
</filter>
<filter id="filter5_f_1_19103" x="211" y="74.8274" width="178.765" height="178.765" filterUnits="userSpaceOnUse" color-interpolation-filters="sRGB">
<feFlood flood-opacity="0" result="BackgroundImageFix"/>
<feBlend mode="normal" in="SourceGraphic" in2="BackgroundImageFix" result="shape"/>
<feGaussianBlur stdDeviation="5.5864" result="effect1_foregroundBlur_1_19103"/>
</filter>
<filter id="filter6_f_1_19103" x="19.1309" y="161.976" width="267.334" height="267.334" filterUnits="userSpaceOnUse" color-interpolation-filters="sRGB">
<feFlood flood-opacity="0" result="BackgroundImageFix"/>
<feBlend mode="normal" in="SourceGraphic" in2="BackgroundImageFix" result="shape"/>
<feGaussianBlur stdDeviation="17.2474" result="effect1_foregroundBlur_1_19103"/>
</filter>
<filter id="filter7_f_1_19103" x="33.8278" y="269.812" width="178.765" height="178.765" filterUnits="userSpaceOnUse" color-interpolation-filters="sRGB">
<feFlood flood-opacity="0" result="BackgroundImageFix"/>
<feBlend mode="normal" in="SourceGraphic" in2="BackgroundImageFix" result="shape"/>
<feGaussianBlur stdDeviation="5.5864" result="effect1_foregroundBlur_1_19103"/>
</filter>
<filter id="filter8_f_1_19103" x="165.82" y="180.944" width="166.915" height="136.497" filterUnits="userSpaceOnUse" color-interpolation-filters="sRGB">
<feFlood flood-opacity="0" result="BackgroundImageFix"/>
<feBlend mode="normal" in="SourceGraphic" in2="BackgroundImageFix" result="shape"/>
<feGaussianBlur stdDeviation="18.3553" result="effect1_foregroundBlur_1_19103"/>
</filter>
<filter id="filter9_f_1_19103" x="44.8191" y="196.929" width="248.377" height="306.454" filterUnits="userSpaceOnUse" color-interpolation-filters="sRGB">
<feFlood flood-opacity="0" result="BackgroundImageFix"/>
<feBlend mode="normal" in="SourceGraphic" in2="BackgroundImageFix" result="shape"/>
<feGaussianBlur stdDeviation="26.3359" result="effect1_foregroundBlur_1_19103"/>
</filter>
<filter id="filter10_f_1_19103" x="207.432" y="292.694" width="193.831" height="198.215" filterUnits="userSpaceOnUse" color-interpolation-filters="sRGB">
<feFlood flood-opacity="0" result="BackgroundImageFix"/>
<feBlend mode="normal" in="SourceGraphic" in2="BackgroundImageFix" result="shape"/>
<feGaussianBlur stdDeviation="19.9514" result="effect1_foregroundBlur_1_19103"/>
</filter>
<filter id="filter11_f_1_19103" x="258.879" y="170.593" width="44.6912" height="89.3823" filterUnits="userSpaceOnUse" color-interpolation-filters="sRGB">
<feFlood flood-opacity="0" result="BackgroundImageFix"/>
<feBlend mode="normal" in="SourceGraphic" in2="BackgroundImageFix" result="shape"/>
<feGaussianBlur stdDeviation="7.18251" result="effect1_foregroundBlur_1_19103"/>
</filter>
<filter id="filter12_f_1_19103" x="349.388" y="305.28" width="110.684" height="85.3264" filterUnits="userSpaceOnUse" color-interpolation-filters="sRGB">
<feFlood flood-opacity="0" result="BackgroundImageFix"/>
<feBlend mode="normal" in="SourceGraphic" in2="BackgroundImageFix" result="shape"/>
<feGaussianBlur stdDeviation="7.98057" result="effect1_foregroundBlur_1_19103"/>
</filter>
<filter id="filter13_f_1_19103" x="258.879" y="170.593" width="44.6912" height="89.3823" filterUnits="userSpaceOnUse" color-interpolation-filters="sRGB">
<feFlood flood-opacity="0" result="BackgroundImageFix"/>
<feBlend mode="normal" in="SourceGraphic" in2="BackgroundImageFix" result="shape"/>
<feGaussianBlur stdDeviation="7.18251" result="effect1_foregroundBlur_1_19103"/>
</filter>
<filter id="filter14_f_1_19103" x="124.397" y="139.227" width="197.531" height="117.318" filterUnits="userSpaceOnUse" color-interpolation-filters="sRGB">
<feFlood flood-opacity="0" result="BackgroundImageFix"/>
<feBlend mode="normal" in="SourceGraphic" in2="BackgroundImageFix" result="shape"/>
<feGaussianBlur stdDeviation="9.57668" result="effect1_foregroundBlur_1_19103"/>
</filter>
<linearGradient id="paint0_linear_1_19103" x1="452.587" y1="339.594" x2="501.249" y2="429.966" gradientUnits="userSpaceOnUse">
<stop stop-color="#1F1F24"/>
<stop offset="1" stop-color="#1B1A1F"/>
</linearGradient>
<linearGradient id="paint1_linear_1_19103" x1="276.879" y1="173.617" x2="276.879" y2="478.068" gradientUnits="userSpaceOnUse">
<stop stop-color="#2F2F35"/>
<stop offset="0.338401" stop-color="#16151A"/>
<stop offset="0.680947" stop-color="#16151A"/>
<stop offset="1" stop-color="#16151A"/>
</linearGradient>
<linearGradient id="paint2_linear_1_19103" x1="198.227" y1="297.484" x2="169.008" y2="450.711" gradientUnits="userSpaceOnUse">
<stop stop-color="#3F1C60"/>
<stop offset="1" stop-color="#320C88"/>
</linearGradient>
<clipPath id="clip0_1_19103">
<rect x="222.172" y="86" width="156.951" height="156.951" rx="78.4755" fill="white"/>
</clipPath>
<clipPath id="clip1_1_19103">
<rect x="45.0002" y="280.984" width="156.951" height="156.951" rx="78.4755" fill="white"/>
</clipPath>
</defs>
</svg>
