<svg width="560" height="565" viewBox="0 0 560 565" fill="none" xmlns="http://www.w3.org/2000/svg">
<mask id="mask0_1_19561" style="mask-type:alpha" maskUnits="userSpaceOnUse" x="340" y="126" width="169" height="276">
<path d="M426.693 126.818C431.595 125.53 436.779 125.837 441.495 127.693L493.879 148.312C503.002 151.903 509 160.71 509 170.515V360.077C509 370.954 501.644 380.454 491.114 383.178L424.382 400.436C419.419 401.719 414.176 401.371 409.427 399.442L355.266 377.439C346.27 373.784 340.386 365.043 340.386 355.333V167.894C340.386 157.051 347.697 147.571 358.184 144.816L426.693 126.818Z" fill="#D9D9D9"/>
</mask>
<g mask="url(#mask0_1_19561)">
<path d="M426.693 122.842C431.595 121.554 436.779 121.861 441.495 123.717L493.879 144.336C503.002 147.927 509 156.734 509 166.538V360.078C509 370.955 501.644 380.455 491.114 383.178L424.382 400.437C419.419 401.72 414.176 401.371 409.427 399.442L355.266 377.439C346.27 373.785 340.386 365.043 340.386 355.333V163.917C340.386 153.075 347.697 143.595 358.184 140.84L426.693 122.842Z" fill="#2E2E33"/>
<g filter="url(#filter0_f_1_19561)">
<path d="M411.173 184.487L517.749 158.24V362.645L411.173 389.687V184.487Z" fill="#19181D"/>
</g>
<g filter="url(#filter1_f_1_19561)">
<path d="M416.435 171.762L496.275 145.265L448.536 111.315L354.703 141.953L416.435 171.762Z" fill="url(#paint0_linear_1_19561)"/>
</g>
<g filter="url(#filter2_f_1_19561)">
<path d="M407.196 225.051C402.106 200.236 420.982 180.777 431.057 174.149L332.434 135.177L316.527 172.558L407.196 225.051Z" fill="#222126"/>
</g>
<g filter="url(#filter3_f_1_19561)">
<path d="M419.921 201.19L313.345 127.222L320.503 380.938L419.921 407.98L513.772 387.301L532.065 358.668L419.921 387.301V201.19Z" fill="#0F0F10"/>
</g>
</g>
<mask id="mask1_1_19561" style="mask-type:alpha" maskUnits="userSpaceOnUse" x="186" y="108" width="169" height="329">
<path d="M272.399 109.321C277.301 108.033 282.485 108.339 287.201 110.196L339.584 130.815C348.708 134.406 354.706 143.212 354.706 153.017V395.868C354.706 406.745 347.35 416.245 336.819 418.969L270.087 436.227C265.125 437.51 259.881 437.162 255.132 435.232L200.972 413.23C191.976 409.575 186.092 400.834 186.092 391.124V150.396C186.092 139.554 193.403 130.074 203.89 127.319L272.399 109.321Z" fill="#D9D9D9"/>
</mask>
<g mask="url(#mask1_1_19561)">
<path d="M272.399 105.345C277.3 104.057 282.485 104.363 287.201 106.22L339.584 126.839C348.708 130.43 354.705 139.236 354.705 149.041V395.869C354.705 406.746 347.35 416.246 336.819 418.969L270.087 436.228C265.125 437.511 259.881 437.162 255.132 435.233L200.972 413.23C191.976 409.576 186.092 400.834 186.092 391.124V146.42C186.092 135.577 193.403 126.098 203.89 123.343L272.399 105.345Z" fill="#2E2E33"/>
<g filter="url(#filter4_f_1_19561)">
<path d="M256.878 175.74L363.455 149.493V398.437L256.878 425.479V175.74Z" fill="#19181D"/>
</g>
<g filter="url(#filter5_f_1_19561)">
<path d="M260.309 160.627L356.296 129.249L298.902 89.0459L186.092 125.327L260.309 160.627Z" fill="url(#paint1_linear_1_19561)"/>
</g>
<g filter="url(#filter6_f_1_19561)">
<path d="M252.902 205.962C247.811 181.147 266.688 161.688 276.762 155.06L178.139 116.088L162.232 153.469L252.902 205.962Z" fill="#222126"/>
</g>
<g filter="url(#filter7_f_1_19561)">
<path d="M265.627 186.875L159.05 112.907L166.208 416.73L265.627 443.772L359.478 423.093L377.771 394.46L265.627 423.093V186.875Z" fill="#0F0F10"/>
</g>
</g>
<mask id="mask2_1_19561" style="mask-type:alpha" maskUnits="userSpaceOnUse" x="50" y="297" width="170" height="171">
<path d="M137.189 298.613C142.091 297.325 147.275 297.631 151.991 299.487L204.374 320.106C213.498 323.698 219.496 332.504 219.496 342.309V426.091C219.496 436.967 212.14 446.468 201.609 449.191L134.877 466.449C129.915 467.733 124.671 467.384 119.922 465.455L65.7619 443.452C56.766 439.797 50.882 431.056 50.882 421.346V339.688C50.882 328.845 58.1928 319.366 68.6797 316.611L137.189 298.613Z" fill="#D9D9D9"/>
</mask>
<g mask="url(#mask2_1_19561)">
<path d="M137.189 298.613C142.091 297.325 147.275 297.631 151.991 299.487L204.374 320.106C213.498 323.698 219.496 332.504 219.496 342.309V426.091C219.496 436.967 212.14 446.468 201.609 449.191L134.877 466.449C129.915 467.733 124.671 467.384 119.922 465.455L65.7619 443.452C56.766 439.797 50.882 431.056 50.882 421.346V339.688C50.882 328.845 58.1928 319.366 68.6797 316.611L137.189 298.613Z" fill="#2E2E33"/>
<g filter="url(#filter8_f_1_19561)">
<path d="M121.667 367.416L228.243 341.169V428.658L121.667 455.699V367.416Z" fill="#19181D"/>
</g>
<g filter="url(#filter9_f_1_19561)">
<path d="M127.236 337.99L204.384 312.539L158.254 279.929L67.5847 309.357L127.236 337.99Z" fill="url(#paint2_linear_1_19561)"/>
</g>
<g filter="url(#filter10_f_1_19561)">
<path d="M117.692 384.915C112.601 360.1 131.478 340.64 141.552 334.012L42.9291 295.04L27.0222 332.422L117.692 384.915Z" fill="#222126"/>
</g>
<g filter="url(#filter11_f_1_19561)">
<path d="M130.417 371.394L23.8401 297.427L30.9983 446.952L130.417 473.994L224.268 453.315L242.561 424.682L130.417 453.315V371.394Z" fill="#0F0F10"/>
</g>
</g>
<line x1="258.468" y1="162.217" x2="258.468" y2="446.951" stroke="#666667" stroke-opacity="0.35" stroke-width="1.59069"/>
<line x1="283.918" y1="98.5902" x2="283.918" y2="389.687" stroke="#666667" stroke-opacity="0.13" stroke-width="1.59069"/>
<line x1="369.815" y1="133.585" x2="369.815" y2="421.5" stroke="#666667" stroke-opacity="0.11" stroke-width="1.59069"/>
<path d="M258.468 161.423L369.816 135.176L283.123 100.976L173.365 128.018L258.468 161.423Z" stroke="#666667" stroke-opacity="0.34" stroke-width="1.59069" stroke-dasharray="4.77 4.77"/>
<path d="M258.468 446.952L369.816 420.706L283.123 386.506L173.365 413.548L258.468 446.952Z" stroke="#666667" stroke-opacity="0.34" stroke-width="1.59069" stroke-dasharray="4.77 4.77"/>
<rect x="267.217" y="127.222" width="9.54417" height="7.95347" rx="3.97674" fill="#3C3D3E"/>
<rect x="107" y="259" width="14" height="14" rx="7" fill="#72DFB6"/>
<rect x="393" y="92" width="14" height="14" rx="7" fill="#EB6763"/>
<rect x="251" y="61" width="14" height="14" rx="7" fill="#5949FF"/>
<line x1="172.569" y1="125.632" x2="172.569" y2="413.548" stroke="#666667" stroke-opacity="0.24" stroke-width="1.59069"/>
<rect x="278.347" y="97.0002" width="9.54417" height="7.95347" rx="3.97674" fill="#656668"/>
<rect x="364.246" y="131.995" width="9.54417" height="7.95347" rx="3.97674" fill="#656668"/>
<rect x="252.899" y="157.446" width="9.54417" height="7.95347" rx="3.97674" fill="#656668"/>
<rect x="278.347" y="381.734" width="9.54417" height="7.95347" rx="3.97674" fill="#656668"/>
<rect x="252.899" y="443.771" width="9.54417" height="7.95347" rx="3.97674" fill="#656668"/>
<rect x="166.998" y="410.367" width="9.54417" height="7.95347" rx="3.97674" fill="#656668"/>
<rect x="265.62" y="413.548" width="9.54417" height="7.95347" rx="3.97674" fill="#3A3A3B"/>
<rect x="364.246" y="416.73" width="9.54417" height="7.95347" rx="3.97674" fill="#656668"/>
<rect x="168.587" y="124.042" width="9.54417" height="7.95347" rx="3.97674" fill="#656668"/>
<defs>
<filter id="filter0_f_1_19561" x="392.084" y="139.152" width="144.753" height="269.623" filterUnits="userSpaceOnUse" color-interpolation-filters="sRGB">
<feFlood flood-opacity="0" result="BackgroundImageFix"/>
<feBlend mode="normal" in="SourceGraphic" in2="BackgroundImageFix" result="shape"/>
<feGaussianBlur stdDeviation="9.54417" result="effect1_foregroundBlur_1_19561"/>
</filter>
<filter id="filter1_f_1_19561" x="337.205" y="93.8178" width="176.567" height="95.4417" filterUnits="userSpaceOnUse" color-interpolation-filters="sRGB">
<feFlood flood-opacity="0" result="BackgroundImageFix"/>
<feBlend mode="normal" in="SourceGraphic" in2="BackgroundImageFix" result="shape"/>
<feGaussianBlur stdDeviation="8.74882" result="effect1_foregroundBlur_1_19561"/>
</filter>
<filter id="filter2_f_1_19561" x="294.257" y="112.907" width="159.069" height="134.414" filterUnits="userSpaceOnUse" color-interpolation-filters="sRGB">
<feFlood flood-opacity="0" result="BackgroundImageFix"/>
<feBlend mode="normal" in="SourceGraphic" in2="BackgroundImageFix" result="shape"/>
<feGaussianBlur stdDeviation="11.1349" result="effect1_foregroundBlur_1_19561"/>
</filter>
<filter id="filter3_f_1_19561" x="294.256" y="108.134" width="256.897" height="318.934" filterUnits="userSpaceOnUse" color-interpolation-filters="sRGB">
<feFlood flood-opacity="0" result="BackgroundImageFix"/>
<feBlend mode="normal" in="SourceGraphic" in2="BackgroundImageFix" result="shape"/>
<feGaussianBlur stdDeviation="9.54417" result="effect1_foregroundBlur_1_19561"/>
</filter>
<filter id="filter4_f_1_19561" x="237.79" y="130.405" width="144.753" height="314.162" filterUnits="userSpaceOnUse" color-interpolation-filters="sRGB">
<feFlood flood-opacity="0" result="BackgroundImageFix"/>
<feBlend mode="normal" in="SourceGraphic" in2="BackgroundImageFix" result="shape"/>
<feGaussianBlur stdDeviation="9.54417" result="effect1_foregroundBlur_1_19561"/>
</filter>
<filter id="filter5_f_1_19561" x="168.594" y="71.5483" width="205.2" height="106.577" filterUnits="userSpaceOnUse" color-interpolation-filters="sRGB">
<feFlood flood-opacity="0" result="BackgroundImageFix"/>
<feBlend mode="normal" in="SourceGraphic" in2="BackgroundImageFix" result="shape"/>
<feGaussianBlur stdDeviation="8.74882" result="effect1_foregroundBlur_1_19561"/>
</filter>
<filter id="filter6_f_1_19561" x="139.962" y="93.8179" width="159.069" height="134.414" filterUnits="userSpaceOnUse" color-interpolation-filters="sRGB">
<feFlood flood-opacity="0" result="BackgroundImageFix"/>
<feBlend mode="normal" in="SourceGraphic" in2="BackgroundImageFix" result="shape"/>
<feGaussianBlur stdDeviation="11.1349" result="effect1_foregroundBlur_1_19561"/>
</filter>
<filter id="filter7_f_1_19561" x="139.962" y="93.8189" width="256.897" height="369.041" filterUnits="userSpaceOnUse" color-interpolation-filters="sRGB">
<feFlood flood-opacity="0" result="BackgroundImageFix"/>
<feBlend mode="normal" in="SourceGraphic" in2="BackgroundImageFix" result="shape"/>
<feGaussianBlur stdDeviation="9.54417" result="effect1_foregroundBlur_1_19561"/>
</filter>
<filter id="filter8_f_1_19561" x="102.578" y="322.081" width="144.753" height="152.707" filterUnits="userSpaceOnUse" color-interpolation-filters="sRGB">
<feFlood flood-opacity="0" result="BackgroundImageFix"/>
<feBlend mode="normal" in="SourceGraphic" in2="BackgroundImageFix" result="shape"/>
<feGaussianBlur stdDeviation="9.54417" result="effect1_foregroundBlur_1_19561"/>
</filter>
<filter id="filter9_f_1_19561" x="50.087" y="262.432" width="171.795" height="93.0556" filterUnits="userSpaceOnUse" color-interpolation-filters="sRGB">
<feFlood flood-opacity="0" result="BackgroundImageFix"/>
<feBlend mode="normal" in="SourceGraphic" in2="BackgroundImageFix" result="shape"/>
<feGaussianBlur stdDeviation="8.74882" result="effect1_foregroundBlur_1_19561"/>
</filter>
<filter id="filter10_f_1_19561" x="4.75243" y="272.771" width="159.069" height="134.414" filterUnits="userSpaceOnUse" color-interpolation-filters="sRGB">
<feFlood flood-opacity="0" result="BackgroundImageFix"/>
<feBlend mode="normal" in="SourceGraphic" in2="BackgroundImageFix" result="shape"/>
<feGaussianBlur stdDeviation="11.1349" result="effect1_foregroundBlur_1_19561"/>
</filter>
<filter id="filter11_f_1_19561" x="4.75182" y="278.338" width="256.897" height="214.744" filterUnits="userSpaceOnUse" color-interpolation-filters="sRGB">
<feFlood flood-opacity="0" result="BackgroundImageFix"/>
<feBlend mode="normal" in="SourceGraphic" in2="BackgroundImageFix" result="shape"/>
<feGaussianBlur stdDeviation="9.54417" result="effect1_foregroundBlur_1_19561"/>
</filter>
<linearGradient id="paint0_linear_1_19561" x1="437.835" y1="111.315" x2="420.354" y2="184.135" gradientUnits="userSpaceOnUse">
<stop stop-color="#2B2B33"/>
<stop offset="1" stop-color="#292C35"/>
</linearGradient>
<linearGradient id="paint1_linear_1_19561" x1="286.037" y1="89.0459" x2="265.613" y2="175.42" gradientUnits="userSpaceOnUse">
<stop stop-color="#2B2B33"/>
<stop offset="1" stop-color="#292C35"/>
</linearGradient>
<linearGradient id="paint2_linear_1_19561" x1="147.915" y1="279.929" x2="131.212" y2="349.92" gradientUnits="userSpaceOnUse">
<stop stop-color="#2B2B33"/>
<stop offset="1" stop-color="#292C35"/>
</linearGradient>
</defs>
</svg>
