<svg width="560" height="565" viewBox="0 0 560 565" fill="none" xmlns="http://www.w3.org/2000/svg">
<g clip-path="url(#clip0_1_19861)">
<rect x="53.7429" y="305.586" width="143.279" height="190.795" rx="68.1411" transform="rotate(-38.7022 53.7429 305.586)" fill="#0C0C0E"/>
<g filter="url(#filter0_f_1_19861)">
<rect x="166.944" y="213.238" width="213.502" height="81.9927" transform="rotate(51.0208 166.944 213.238)" fill="url(#paint0_linear_1_19861)"/>
</g>
<g filter="url(#filter1_f_1_19861)">
<ellipse cx="152.004" cy="297.633" rx="66.5336" ry="60.3825" transform="rotate(-35.1985 152.004 297.633)" fill="url(#paint1_linear_1_19861)"/>
</g>
<g filter="url(#filter2_f_1_19861)">
<ellipse cx="141.333" cy="296.433" rx="51.9637" ry="39.5425" transform="rotate(-35.1985 141.333 296.433)" fill="url(#paint2_linear_1_19861)"/>
</g>
<g filter="url(#filter3_f_1_19861)">
<path d="M263.467 360.609C243.782 409.065 174.884 434.05 135.513 418.907C157.47 461.306 296.175 416.333 263.467 360.609Z" fill="#0D0D0F"/>
</g>
</g>
<g clip-path="url(#clip1_1_19861)">
<rect x="200.626" y="110" width="137.796" height="137.796" rx="68.8982" fill="#37363C"/>
<g filter="url(#filter4_f_1_19861)">
<circle cx="295.265" cy="122.872" r="87.0692" fill="#B0AFBD"/>
</g>
</g>
<path d="M63.8987 372.699C66.2222 372.507 67.8814 374.903 66.8853 377.011L54.5363 403.143C53.3955 405.557 49.9157 405.421 48.9672 402.925L44.2109 390.41C44.0361 389.95 43.7518 389.539 43.3826 389.214L33.3389 380.36C31.3359 378.595 32.432 375.289 35.0931 375.07L63.8987 372.699Z" fill="#00AE6F"/>
<path d="M148.696 160.508C151.02 160.699 152.679 158.303 151.683 156.195L139.334 130.063C138.193 127.649 134.713 127.785 133.765 130.281L129.008 142.797C128.834 143.257 128.549 143.667 128.18 143.993L118.136 152.846C116.133 154.612 117.229 157.917 119.891 158.136L148.696 160.508Z" fill="#FE5B5C"/>
<path d="M484.897 365.399C482.577 365.624 481.37 368.276 482.724 370.174L506.473 403.436C508.025 405.61 511.425 404.857 511.915 402.233L515.504 383.012C515.594 382.528 515.801 382.073 516.106 381.688L528.244 366.358C529.902 364.265 528.236 361.207 525.578 361.464L484.897 365.399Z" fill="#4991FF"/>
<mask id="mask0_1_19861" style="mask-type:alpha" maskUnits="userSpaceOnUse" x="294" y="250" width="160" height="183">
<path d="M311.551 279.518L379.58 252.017C392.055 246.974 406.342 251.789 413.221 263.353L449.392 324.162C452.077 328.676 453.401 333.869 453.204 339.118L451.863 374.872C451.478 385.158 445.33 394.35 435.971 398.634L366.649 430.366C353.709 436.289 338.389 431.26 331.478 418.819L297.94 358.451C295.69 354.402 294.51 349.846 294.51 345.214V304.788C294.51 293.679 301.252 283.682 311.551 279.518Z" fill="#1F2025"/>
</mask>
<g mask="url(#mask0_1_19861)">
<path d="M311.551 279.518L379.58 252.017C392.055 246.974 406.342 251.789 413.221 263.353L449.392 324.162C452.077 328.676 453.401 333.869 453.204 339.118L451.863 374.872C451.478 385.158 445.33 394.35 435.971 398.634L366.649 430.366C353.709 436.289 338.389 431.26 331.478 418.819L297.94 358.451C295.69 354.402 294.51 349.846 294.51 345.214V304.788C294.51 293.679 301.252 283.682 311.551 279.518Z" fill="#1F2025"/>
<g filter="url(#filter5_f_1_19861)">
<path d="M433.063 408.305L457.291 387.105L458.805 385.591L408.835 300.036C408.835 316.693 402.021 324.264 383.85 324.264L433.063 408.305Z" fill="url(#paint3_linear_1_19861)"/>
</g>
<g filter="url(#filter6_f_1_19861)">
<path d="M413.38 253.851L411.109 308.364L460.322 387.862V328.049L413.38 253.851Z" fill="#292933"/>
</g>
<g filter="url(#filter7_f_1_19861)">
<path d="M316.467 349.251C322.524 349.856 362.399 334.865 392.179 320.48L445.935 410.578L342.966 462.819L287.696 366.664L285.425 284.895L308.139 275.052C292.996 323.508 308.896 348.493 316.467 349.251Z" fill="#0E0E10"/>
</g>
<g filter="url(#filter8_f_1_19861)">
<rect x="383.608" y="220.538" width="34.8277" height="99.9402" rx="17.4138" transform="rotate(4.20487 383.608 220.538)" fill="#2D2E32"/>
</g>
</g>
<defs>
<filter id="filter0_f_1_19861" x="77.4631" y="187.496" width="249.525" height="269.032" filterUnits="userSpaceOnUse" color-interpolation-filters="sRGB">
<feFlood flood-opacity="0" result="BackgroundImageFix"/>
<feBlend mode="normal" in="SourceGraphic" in2="BackgroundImageFix" result="shape"/>
<feGaussianBlur stdDeviation="12.8711" result="effect1_foregroundBlur_1_19861"/>
</filter>
<filter id="filter1_f_1_19861" x="58.6708" y="206.366" width="186.667" height="182.534" filterUnits="userSpaceOnUse" color-interpolation-filters="sRGB">
<feFlood flood-opacity="0" result="BackgroundImageFix"/>
<feBlend mode="normal" in="SourceGraphic" in2="BackgroundImageFix" result="shape"/>
<feGaussianBlur stdDeviation="14.3853" result="effect1_foregroundBlur_1_19861"/>
</filter>
<filter id="filter2_f_1_19861" x="79.5022" y="238.745" width="123.662" height="115.376" filterUnits="userSpaceOnUse" color-interpolation-filters="sRGB">
<feFlood flood-opacity="0" result="BackgroundImageFix"/>
<feBlend mode="normal" in="SourceGraphic" in2="BackgroundImageFix" result="shape"/>
<feGaussianBlur stdDeviation="6.81411" result="effect1_foregroundBlur_1_19861"/>
</filter>
<filter id="filter3_f_1_19861" x="117.342" y="342.438" width="169.263" height="111.391" filterUnits="userSpaceOnUse" color-interpolation-filters="sRGB">
<feFlood flood-opacity="0" result="BackgroundImageFix"/>
<feBlend mode="normal" in="SourceGraphic" in2="BackgroundImageFix" result="shape"/>
<feGaussianBlur stdDeviation="9.08548" result="effect1_foregroundBlur_1_19861"/>
</filter>
<filter id="filter4_f_1_19861" x="177.911" y="5.51756" width="234.708" height="234.708" filterUnits="userSpaceOnUse" color-interpolation-filters="sRGB">
<feFlood flood-opacity="0" result="BackgroundImageFix"/>
<feBlend mode="normal" in="SourceGraphic" in2="BackgroundImageFix" result="shape"/>
<feGaussianBlur stdDeviation="15.1425" result="effect1_foregroundBlur_1_19861"/>
</filter>
<filter id="filter5_f_1_19861" x="373.25" y="289.436" width="96.1546" height="129.468" filterUnits="userSpaceOnUse" color-interpolation-filters="sRGB">
<feFlood flood-opacity="0" result="BackgroundImageFix"/>
<feBlend mode="normal" in="SourceGraphic" in2="BackgroundImageFix" result="shape"/>
<feGaussianBlur stdDeviation="5.29986" result="effect1_foregroundBlur_1_19861"/>
</filter>
<filter id="filter6_f_1_19861" x="400.509" y="243.251" width="70.4125" height="155.21" filterUnits="userSpaceOnUse" color-interpolation-filters="sRGB">
<feFlood flood-opacity="0" result="BackgroundImageFix"/>
<feBlend mode="normal" in="SourceGraphic" in2="BackgroundImageFix" result="shape"/>
<feGaussianBlur stdDeviation="5.29986" result="effect1_foregroundBlur_1_19861"/>
</filter>
<filter id="filter7_f_1_19861" x="268.768" y="258.396" width="193.824" height="221.08" filterUnits="userSpaceOnUse" color-interpolation-filters="sRGB">
<feFlood flood-opacity="0" result="BackgroundImageFix"/>
<feBlend mode="normal" in="SourceGraphic" in2="BackgroundImageFix" result="shape"/>
<feGaussianBlur stdDeviation="8.32835" result="effect1_foregroundBlur_1_19861"/>
</filter>
<filter id="filter8_f_1_19861" x="366.909" y="211.167" width="60.803" height="120.966" filterUnits="userSpaceOnUse" color-interpolation-filters="sRGB">
<feFlood flood-opacity="0" result="BackgroundImageFix"/>
<feBlend mode="normal" in="SourceGraphic" in2="BackgroundImageFix" result="shape"/>
<feGaussianBlur stdDeviation="5.29986" result="effect1_foregroundBlur_1_19861"/>
</filter>
<linearGradient id="paint0_linear_1_19861" x1="273.695" y1="213.238" x2="273.695" y2="295.231" gradientUnits="userSpaceOnUse">
<stop stop-color="#292B37"/>
<stop offset="1" stop-color="#111014" stop-opacity="0"/>
</linearGradient>
<linearGradient id="paint1_linear_1_19861" x1="152.004" y1="237.25" x2="152.004" y2="358.015" gradientUnits="userSpaceOnUse">
<stop stop-color="#2C2D32"/>
<stop offset="1" stop-color="#2C2D32" stop-opacity="0.06"/>
</linearGradient>
<linearGradient id="paint2_linear_1_19861" x1="185.638" y1="322.566" x2="93.8617" y2="292.313" gradientUnits="userSpaceOnUse">
<stop stop-color="#1D1C21"/>
<stop offset="1" stop-color="#1D1C21"/>
</linearGradient>
<linearGradient id="paint3_linear_1_19861" x1="398.992" y1="319.721" x2="441.391" y2="398.462" gradientUnits="userSpaceOnUse">
<stop stop-color="#1F1F24"/>
<stop offset="1" stop-color="#1B1A1F"/>
</linearGradient>
<clipPath id="clip0_1_19861">
<rect x="53.7429" y="305.586" width="143.279" height="190.795" rx="68.1411" transform="rotate(-38.7022 53.7429 305.586)" fill="white"/>
</clipPath>
<clipPath id="clip1_1_19861">
<rect x="200.626" y="110" width="137.796" height="137.796" rx="68.8982" fill="white"/>
</clipPath>
</defs>
</svg>
