<svg width="998" height="530" viewBox="0 0 998 530" fill="none" xmlns="http://www.w3.org/2000/svg">
<path d="M764.038 121.521L859.866 128.465V116.66L764.038 109.021V121.521Z" fill="#5949FF"/>
<path d="M921.32 116.66V104.855L859.865 116.66V128.465L921.32 116.66Z" fill="#463BFF"/>
<path d="M860.213 116.66L921.32 104.855L824.798 97.2168L764.038 109.022L860.213 116.66Z" fill="#7862FF"/>
<path d="M225.531 101.383L130.745 93.0498L68.9434 106.243L164.076 113.187L225.531 101.383Z" fill="#23203D"/>
<path d="M165 530L163.957 112.439L69 106V530H165Z" fill="#1E1C3D"/>
<path d="M164 111.932L225.652 101L226 530H164V111.932Z" fill="#1D1B47"/>
<path d="M169.631 127.076L265.458 134.02V122.216L169.631 114.577V127.076Z" fill="#1F2033"/>
<path d="M326.913 122.216V110.411L265.458 122.216V134.021L326.913 122.216Z" fill="#131419"/>
<path d="M265.806 122.216L326.913 110.411L230.391 102.772L169.631 114.577L265.806 122.216Z" fill="#191A24"/>
<path d="M102.271 138.881L198.099 145.825V134.02L102.271 126.382V138.881Z" fill="#D43A83"/>
<path d="M259.553 134.021V122.216L198.099 134.021V145.825L259.553 134.021Z" fill="#C32969"/>
<path d="M198.446 134.02L259.554 122.216L163.032 114.577L102.271 126.382L198.446 134.02Z" fill="#F85EBA"/>
<path d="M202.269 147.212L298.096 154.156V142.351L202.269 134.713V147.212Z" fill="#D43A83"/>
<path d="M359.549 142.352V130.547L298.095 142.352V154.157L359.549 142.352Z" fill="#C32969"/>
<path d="M298.442 142.352L359.55 130.547L263.028 122.908L202.268 134.713L298.442 142.352Z" fill="#F85EBA"/>
<path d="M303.649 155.546L399.477 162.49V150.685L303.649 143.047V155.546Z" fill="#D43A83"/>
<path d="M460.931 150.686V138.881L399.477 150.686V162.491L460.931 150.686Z" fill="#C32969"/>
<path d="M399.825 150.685L460.933 138.881L364.411 131.242L303.65 143.047L399.825 150.685Z" fill="#F85EBA"/>
<path d="M39.083 151.379L134.911 158.323V146.518L39.083 138.88V151.379Z" fill="#5949FF"/>
<path d="M196.365 146.519V134.714L134.91 146.519V158.324L196.365 146.519Z" fill="#463BFF"/>
<path d="M135.258 146.518L196.365 134.714L99.8432 127.075L39.083 138.88L135.258 146.518Z" fill="#7862FF"/>
<path d="M139.078 159.713L234.906 166.657V154.852L139.078 147.214V159.713Z" fill="#5949FF"/>
<path d="M296.36 154.853V143.048L234.905 154.853V166.658L296.36 154.853Z" fill="#463BFF"/>
<path d="M235.253 154.852L296.36 143.048L199.838 135.409L139.078 147.214L235.253 154.852Z" fill="#7862FF"/>
<path d="M237.682 167.35L333.509 174.294V162.489L237.682 154.851V167.35Z" fill="#5949FF"/>
<path d="M394.963 162.489V150.685L333.509 162.489V174.294L394.963 162.489Z" fill="#463BFF"/>
<path d="M333.856 162.489L394.964 150.684L298.442 143.046L237.682 154.851L333.856 162.489Z" fill="#7862FF"/>
<path d="M338.369 176.379L434.197 183.323V171.519L338.369 163.88V176.379Z" fill="#5949FF"/>
<path d="M495.651 171.519V159.714L434.197 171.519V183.324L495.651 171.519Z" fill="#463BFF"/>
<path d="M434.544 171.519L495.652 159.714L399.13 152.075L338.369 163.88L434.544 171.519Z" fill="#7862FF"/>
<path d="M398.784 109.717L494.612 116.661V104.856L398.784 97.2178V109.717Z" fill="#1B1A34"/>
<path d="M556.066 104.857V93.0518L494.611 104.857V116.661L556.066 104.857Z" fill="#181833"/>
<path d="M494.612 104.856L556.066 93.0515L459.544 85.4131L398.784 97.2179L494.612 104.856Z" fill="#1D1A2C"/>
<path d="M500.167 118.048L595.994 124.992V113.187L500.167 105.549V118.048Z" fill="#1B1A34"/>
<path d="M657.45 113.188V101.383L595.995 113.188V124.992L657.45 113.188Z" fill="#181833"/>
<path d="M595.994 113.187L657.448 101.383L560.926 93.7441L500.166 105.549L595.994 113.187Z" fill="#1D1A2C"/>
<path d="M601.548 125.69L697.375 132.634V120.829L601.548 113.191V125.69Z" fill="#5949FF"/>
<path d="M758.83 120.828V109.023L697.375 120.828V132.633L758.83 120.828Z" fill="#463BFF"/>
<path d="M697.724 120.827L758.831 109.022L662.309 101.384L601.549 113.189L697.724 120.827Z" fill="#7862FF"/>
<path d="M535.58 138.187L631.408 145.131V133.326L535.58 125.688V138.187Z" fill="#5949FF"/>
<path d="M692.862 133.326V121.521L631.407 133.326V145.131L692.862 133.326Z" fill="#463BFF"/>
<path d="M631.755 133.326L692.862 121.521L596.34 113.883L535.58 125.688L631.755 133.326Z" fill="#7862FF"/>
<path d="M470.307 150.685L566.134 157.629V145.824L470.307 138.186V150.685Z" fill="#5949FF"/>
<path d="M627.588 145.824V134.02L566.134 145.824V157.629L627.588 145.824Z" fill="#463BFF"/>
<path d="M566.481 145.824L627.589 134.019L531.067 126.381L470.307 138.186L566.481 145.824Z" fill="#7862FF"/>
<path d="M404.339 163.882L500.166 170.826V159.021L404.339 151.383V163.882Z" fill="#5949FF"/>
<path d="M561.62 159.019V147.215L500.166 159.019V170.824L561.62 159.019Z" fill="#463BFF"/>
<path d="M500.513 159.019L561.621 147.214L465.099 139.576L404.339 151.381L500.513 159.019Z" fill="#7862FF"/>
<path d="M242.542 222.903L338.369 229.847V218.042L242.542 210.403V222.903Z" fill="#5949FF"/>
<path d="M399.824 218.042V206.237L338.369 218.042V229.847L399.824 218.042Z" fill="#463BFF"/>
<path d="M338.718 218.042L399.825 206.237L303.303 198.599L242.543 210.403L338.718 218.042Z" fill="#7862FF"/>
<path d="M857.435 118.745L762.649 110.412L700.847 123.606L795.98 130.55L857.435 118.745Z" fill="#7862FF"/>
<path d="M797 530L795.957 130.166L701 124V530H797Z" fill="#2C278B"/>
<path d="M796 129.473L856.657 119L857 530H796V129.473Z" fill="#292580"/>
<path d="M634.88 147.907L730.707 154.851V143.047L634.88 135.408V147.907Z" fill="#5949FF"/>
<path d="M792.162 143.048V131.243L730.707 143.048V154.853L792.162 143.048Z" fill="#463BFF"/>
<path d="M731.055 143.048L792.162 131.243L695.64 123.604L634.88 135.409L731.055 143.048Z" fill="#7862FF"/>
<path d="M569.606 160.407L665.434 167.351V155.547L569.606 147.908V160.407Z" fill="#5949FF"/>
<path d="M726.888 155.547V143.742L665.434 155.547V167.352L726.888 155.547Z" fill="#463BFF"/>
<path d="M665.781 155.547L726.889 143.742L630.367 136.104L569.606 147.908L665.781 155.547Z" fill="#7862FF"/>
<path d="M504.334 172.906L600.161 179.85V168.046L504.334 160.407V172.906Z" fill="#5949FF"/>
<path d="M661.615 168.046V156.241L600.16 168.046V179.851L661.615 168.046Z" fill="#463BFF"/>
<path d="M600.508 168.046L661.615 156.241L565.093 148.603L504.333 160.407L600.508 168.046Z" fill="#7862FF"/>
<path d="M439.061 185.405L534.888 192.35V180.545L439.061 172.906V185.405Z" fill="#5949FF"/>
<path d="M596.341 180.546V168.741L534.887 180.546V192.351L596.341 180.546Z" fill="#463BFF"/>
<path d="M535.233 180.546L596.341 168.741L499.819 161.103L439.059 172.907L535.233 180.546Z" fill="#7862FF"/>
<path d="M373.784 197.905L469.612 204.85V193.045L373.784 185.406V197.905Z" fill="#5949FF"/>
<path d="M531.066 193.045V181.24L469.611 193.045V204.85L531.066 193.045Z" fill="#463BFF"/>
<path d="M469.959 193.045L531.066 181.24L434.544 173.602L373.784 185.406L469.959 193.045Z" fill="#7862FF"/>
<path d="M802.925 196.517L898.753 203.461V191.656L802.925 184.018V196.517Z" fill="#5949FF"/>
<path d="M960.207 191.656V179.852L898.752 191.656V203.461L960.207 191.656Z" fill="#463BFF"/>
<path d="M899.1 191.656L960.207 179.851L863.685 172.213L802.925 184.018L899.1 191.656Z" fill="#7862FF"/>
<path d="M539.746 193.046L635.573 199.99V188.185L539.746 180.547V193.046Z" fill="#5949FF"/>
<path d="M697.028 188.186V176.381L635.573 188.186V199.991L697.028 188.186Z" fill="#463BFF"/>
<path d="M635.921 188.185L697.028 176.381L600.506 168.742L539.746 180.547L635.921 188.185Z" fill="#7862FF"/>
<path d="M639.742 201.38L735.57 208.324V196.519L639.742 188.881V201.38Z" fill="#5949FF"/>
<path d="M797.024 196.519V184.714L735.569 196.519V208.324L797.024 196.519Z" fill="#463BFF"/>
<path d="M735.917 196.517L797.024 184.713L700.502 177.074L639.742 188.879L735.917 196.517Z" fill="#7862FF"/>
<path d="M738.347 209.71L834.174 216.654V204.849L738.347 197.211V209.71Z" fill="#5949FF"/>
<path d="M895.628 204.85V193.045L834.174 204.85V216.655L895.628 204.85Z" fill="#463BFF"/>
<path d="M834.521 204.85L895.629 193.045L799.107 185.406L738.347 197.211L834.521 204.85Z" fill="#7862FF"/>
<path d="M474.474 205.543L570.301 212.487V200.682L474.474 193.044V205.543Z" fill="#5949FF"/>
<path d="M631.755 200.683V188.878L570.301 200.683V212.488L631.755 200.683Z" fill="#463BFF"/>
<path d="M570.648 200.683L631.756 188.878L535.234 181.239L474.474 193.044L570.648 200.683Z" fill="#7862FF"/>
<path d="M409.197 218.045L505.025 224.989V213.184L409.197 205.546V218.045Z" fill="#D43A83"/>
<path d="M566.479 213.185V201.38L505.024 213.185V224.99L566.479 213.185Z" fill="#C32969"/>
<path d="M505.373 213.184L566.48 201.38L469.958 193.741L409.198 205.546L505.373 213.184Z" fill="#F85EBA"/>
<path d="M343.926 231.237L439.753 238.181V226.376L343.926 218.737V231.237Z" fill="#D43A83"/>
<path d="M501.208 226.376V214.571L439.753 226.376V238.181L501.208 226.376Z" fill="#C32969"/>
<path d="M440.1 226.376L501.208 214.571L404.686 206.933L343.926 218.737L440.1 226.376Z" fill="#F85EBA"/>
<path d="M75.1924 172.214L171.02 179.158V167.353L75.1924 159.715V172.214Z" fill="#5949FF"/>
<path d="M232.475 167.353V155.548L171.021 167.353V179.158L232.475 167.353Z" fill="#463BFF"/>
<path d="M171.367 167.351L232.475 155.547L135.953 147.908L75.1924 159.713L171.367 167.351Z" fill="#7862FF"/>
<path d="M12 185.405L107.828 192.349V180.544L12 172.905V185.405Z" fill="#5949FF"/>
<path d="M169.282 180.544V168.739L107.827 180.544V192.349L169.282 180.544Z" fill="#463BFF"/>
<path d="M108.176 180.544L169.283 168.739L72.7612 161.101L12.001 172.905L108.176 180.544Z" fill="#7862FF"/>
<path d="M173.103 180.546L268.93 187.49V175.685L173.103 168.047V180.546Z" fill="#D43A83"/>
<path d="M330.384 175.686V163.881L268.93 175.686V187.491L330.384 175.686Z" fill="#C32969"/>
<path d="M269.276 175.685L330.384 163.881L233.862 156.242L173.102 168.047L269.276 175.685Z" fill="#F85EBA"/>
<path d="M483.71 25.3696L505.759 81.6934C508.764 89.3706 503.174 97.6857 494.93 97.8002L453.22 98.3795C445.405 98.4881 439.923 90.7074 442.656 83.3851L464.252 25.5243C467.595 16.5689 480.226 16.4686 483.71 25.3696Z" fill="#111E15"/>
<path d="M465.986 42.3472L472.582 44.0832L463.902 43.0416L458 42L465.986 42.3472Z" fill="#EDEDFF"/>
<ellipse cx="159.217" cy="156.587" rx="24.3041" ry="3.12481" fill="#5042FC"/>
<path d="M160.045 123.444L174.068 139.941C180.562 147.581 175.176 159.327 165.149 159.391L141.209 159.544C130.655 159.612 124.773 147.375 131.419 139.175L144.016 123.632C148.122 118.565 155.821 118.475 160.045 123.444Z" fill="url(#paint0_linear_1_18262)"/>
<path d="M335.94 216.065L241.155 210.404L179.353 219.367L274.486 224.084L335.94 216.065Z" fill="#7862FF"/>
<path d="M275 530L273.957 223.723L179 219V530H275Z" fill="#4D41DB"/>
<path d="M274 224.002L335.652 216L336 530H274V224.002Z" fill="#382FBC"/>
<ellipse cx="724.111" cy="130.895" rx="23.2625" ry="3.12481" fill="#3B32B0"/>
<ellipse cx="790.775" cy="119.785" rx="27.4289" ry="3.81921" fill="#2B2771"/>
<ellipse cx="672.46" cy="144.541" rx="27.4289" ry="3.47201" transform="rotate(0.94874 672.46 144.541)" fill="#5043FF"/>
<path d="M680.854 118.648L683.755 93.7965L660.376 94.4868L630.841 117L656.311 134.919L680.854 118.648Z" fill="#FF8A06"/>
<path d="M683.756 93.7984L659.004 75.585L659.732 95.3702L683.756 93.7984Z" fill="#FFC810"/>
<path d="M659.979 95.1543L633.743 92.1493L659.005 75.5839L659.979 95.1543Z" fill="#FFE417"/>
<path d="M630.84 117L633.741 92.1487L660.083 95.0271L674.336 121.991L642.751 120.675L630.84 117Z" fill="#FFA60A"/>
<path d="M660.084 95.0269L642.778 120.329L633.742 92.1484L660.084 95.0269Z" fill="#FFBC0E"/>
<path d="M674.222 121.999L683.756 93.796L660.084 95.0265L674.222 121.999Z" fill="#FF9A08"/>
<g opacity="0.3">
<ellipse cx="872.06" cy="108.008" rx="27.4289" ry="3.47201" transform="rotate(1.21336 872.06 108.008)" fill="#5043FF"/>
<path d="M880.573 82.1531L883.589 57.3154L860.207 57.8977L830.568 80.2741L855.955 98.3105L880.573 82.1531Z" fill="#FF8A06"/>
<path d="M883.59 57.3168L858.922 38.9893L859.559 58.7776L883.59 57.3168Z" fill="#FFC810"/>
<path d="M859.806 58.5648L833.584 55.4387L858.921 38.9902L859.806 58.5648Z" fill="#FFE417"/>
<path d="M830.569 80.2756L833.585 55.4379L859.913 58.438L874.042 85.4674L842.463 84.0059L830.569 80.2756Z" fill="#FFA60A"/>
<path d="M859.911 58.4367L842.488 83.6585L833.583 55.4365L859.911 58.4367Z" fill="#FFBC0E"/>
<path d="M873.925 85.4758L883.589 57.3174L859.912 58.4385L873.925 85.4758Z" fill="#FF9A08"/>
</g>
<path d="M725.288 97.0562L739.311 113.553C745.805 121.193 740.419 132.939 730.392 133.003L706.452 133.157C695.898 133.224 690.016 120.988 696.662 112.788L709.26 97.244C713.366 92.1777 721.064 92.0875 725.288 97.0562Z" fill="url(#paint1_linear_1_18262)"/>
<path d="M788.552 50.3696L810.6 106.693C813.606 114.371 808.015 122.686 799.772 122.8L758.061 123.38C750.246 123.488 744.765 115.707 747.498 108.385L769.094 50.5243C772.437 41.5689 785.067 41.4686 788.552 50.3696Z" fill="#097B0D"/>
<path d="M111.299 193.738L207.126 200.683V188.878L111.299 181.239V193.738Z" fill="#1F2033"/>
<path d="M268.581 188.878V177.073L207.126 188.878V200.683L268.581 188.878Z" fill="#131419"/>
<path d="M207.474 188.878L268.581 177.073L172.059 169.435L111.299 181.239L207.474 188.878Z" fill="#191A24"/>
<ellipse cx="277.61" cy="221.514" rx="27.4289" ry="3.47201" fill="#5043FF"/>
<path d="M285.574 195.484L288.064 170.588L264.7 171.665L235.541 194.664L261.304 212.159L285.574 195.484Z" fill="#FF8A06"/>
<path d="M288.064 170.589L263.014 152.788L264.069 172.559L288.064 170.589Z" fill="#FFC810"/>
<path d="M264.312 172.339L238.03 169.769L263.013 152.788L264.312 172.339Z" fill="#FFE417"/>
<path d="M235.54 194.664L238.029 169.768L264.415 172.21L279.113 198.934L247.51 198.142L235.54 194.664Z" fill="#FFA60A"/>
<path d="M264.416 172.21L247.531 197.795L238.03 169.768L264.416 172.21Z" fill="#FFBC0E"/>
<path d="M278.999 198.946L288.064 170.589L264.416 172.211L278.999 198.946Z" fill="#FF9A08"/>
<path d="M278.651 244.43L374.479 251.374V239.569L278.651 231.931V244.43Z" fill="#5949FF"/>
<path d="M435.933 239.569V227.765L374.479 239.569V251.374L435.933 239.569Z" fill="#463BFF"/>
<path d="M374.826 239.569L435.933 227.764L339.412 220.126L278.651 231.931L374.826 239.569Z" fill="#7862FF"/>
<path d="M997.705 201.376L902.919 193.043L841.117 206.237L936.25 213.181L997.705 201.376Z" fill="#313150"/>
<path d="M937 530L935.957 210.92L841 206V530H937Z" fill="#1D1E31"/>
<path d="M936 209.384L997.652 201L998 530H936V209.384Z" fill="#151521"/>
<ellipse cx="926.182" cy="201.03" rx="27.4289" ry="3.81921" fill="#1A1B2B"/>
<path d="M923.311 131.235L945.577 190.116C948.471 197.771 942.888 205.978 934.704 206.095L892.591 206.701C884.827 206.812 879.346 199.128 881.979 191.823L903.769 131.386C907.051 122.284 919.889 122.185 923.311 131.235Z" fill="url(#paint2_linear_1_18262)"/>
<path d="M444.613 238.874L540.441 245.818V234.013L444.613 226.375V238.874Z" fill="#5949FF"/>
<path d="M601.896 234.014V222.209L540.441 234.014V245.819L601.896 234.014Z" fill="#463BFF"/>
<path d="M540.788 234.014L601.895 222.209L505.373 214.57L444.613 226.375L540.788 234.014Z" fill="#7862FF"/>
<path d="M544.607 247.209L640.435 254.153V242.348L544.607 234.71V247.209Z" fill="#5949FF"/>
<path d="M701.889 242.349V230.544L640.435 242.349V254.154L701.889 242.349Z" fill="#463BFF"/>
<path d="M640.782 242.349L701.89 230.544L605.368 222.905L544.607 234.71L640.782 242.349Z" fill="#7862FF"/>
<path d="M536.621 236.099L441.835 227.767L380.033 240.96L474.819 247.904L536.621 236.099Z" fill="#313150"/>
<path d="M476 530L474.957 245.389L380 241V530H476Z" fill="#1D1E31"/>
<path d="M475 243.492L536.652 236L537 530H475V243.492Z" fill="#151521"/>
<path d="M480.029 259.707L575.857 266.651V254.846L480.029 247.208V259.707Z" fill="#1F2033"/>
<path d="M637.311 254.847V243.042L575.856 254.847V266.652L637.311 254.847Z" fill="#131419"/>
<path d="M576.204 254.847L637.311 243.042L540.789 235.403L480.029 247.208L576.204 254.847Z" fill="#191A24"/>
<path d="M801.885 238.875L707.099 230.542L645.297 243.736L740.43 250.68L801.885 238.875Z" fill="#7862FF"/>
<path d="M741 530L739.957 248.343L645 244V530H741Z" fill="#3B32D5"/>
<path d="M740 248.5L801.652 239L802 530H740V248.5Z" fill="#382FBC"/>
<path d="M579.329 268.039L675.157 274.983V263.178L579.329 255.54V268.039Z" fill="#5949FF"/>
<path d="M736.61 263.179V251.374L675.155 263.179V274.984L736.61 263.179Z" fill="#463BFF"/>
<path d="M675.503 263.179L736.61 251.374L640.088 243.735L579.328 255.54L675.503 263.179Z" fill="#7862FF"/>
<path d="M459.333 91.6611L423.224 99.2996L462.805 102.424L496.136 95.8275L459.333 91.6611Z" fill="#E9E9FF"/>
<path d="M451 98.2584L445.445 51.0391L437.112 56.2471L441.973 99.3L451 98.2584Z" fill="#A6A7E1"/>
<path d="M437.112 56.249H430.862L436.418 99.302H441.973L437.112 56.249Z" fill="#AFB0E5"/>
<path d="M443.362 98.9533L438.849 61.8027L441.279 63.1915L445.098 98.6061L443.362 98.9533Z" fill="#D59FC6"/>
<path d="M438.848 50.3445L445.445 51.0389L437.112 56.2469H430.863L438.848 50.3445Z" fill="#EDEDFF"/>
<path d="M423.224 146.867L417.321 148.95V163.88L423.224 163.533V146.867Z" fill="#DFE0FC"/>
<path d="M438.849 61.8025L445.445 58.6777L441.279 63.1913L438.849 61.8025Z" fill="#CFB3DD"/>
<path d="M450.306 97.9115L445.445 58.6777L439.959 62.4969L443.361 98.9531L450.306 97.9115Z" fill="#CD7498"/>
<path d="M463.846 43.0544L472.526 44.096L467.665 94.7874L458.291 96.1762L463.846 43.0544Z" fill="#A6A7E1"/>
<path d="M457.945 42.0117L452.737 95.8279L458.292 96.1751L463.847 43.0533L457.945 42.0117Z" fill="#C7C9F1"/>
<path d="M464.194 52.7754L470.097 53.4698L465.93 94.7867L459.681 95.8283L464.194 52.7754Z" fill="#D59FC6"/>
<path d="M462.805 102.425L496.136 95.8281V149.992L462.805 154.505V102.425Z" fill="#A6A7E1"/>
<path d="M477.04 112.495V106.246L468.707 107.634L466.276 107.982V121.523L468.707 121.87L477.04 120.481V115.273L485.025 113.884V118.398L494.747 117.009V103.121L485.025 104.51V111.454L477.04 112.495Z" fill="#171817"/>
<path d="M473.569 113.189V109.022L469.402 109.717V114.23L473.569 113.189Z" fill="#D5D5D5"/>
<path d="M492.317 104.855L488.151 105.55V109.716C488.151 109.994 490.928 109.832 492.317 109.716V104.855Z" fill="#D5D5D5"/>
<path d="M462.805 154.506V102.426L423.224 99.3008L422.529 154.506H462.805Z" fill="#BEC0ED"/>
<ellipse cx="482.248" cy="130.55" rx="3.12481" ry="5.55522" fill="#883D69"/>
<path d="M496.136 145.132L513.149 146.173L498.914 149.298L482.942 147.562L496.136 145.132Z" fill="#C8C9F1"/>
<path d="M498.913 148.95L513.149 146.172V160.754L498.913 164.226V148.95Z" fill="#A6A8E1"/>
<path d="M482.942 147.562L498.914 148.95V164.227L482.942 163.186V147.562Z" fill="url(#paint3_linear_1_18262)"/>
<path d="M475.304 149.645L488.845 150.687L474.957 154.159L417.321 148.951L422.529 147.909L462.805 151.381L475.304 149.645Z" fill="#DFE0FC"/>
<path d="M466.972 94.7867L470.791 53.4697H464.542L460.723 95.8283L466.972 94.7867Z" fill="#CD7498"/>
<path d="M488.844 165.963L474.956 168.741V153.811L488.844 150.687V165.963Z" fill="#A6A8E1"/>
<path d="M474.957 168.741V153.811L417.321 148.95V163.88L474.957 168.741Z" fill="#BFC0ED"/>
<defs>
<linearGradient id="paint0_linear_1_18262" x1="152.618" y1="123.081" x2="152.618" y2="159.713" gradientUnits="userSpaceOnUse">
<stop stop-color="#01E003"/>
<stop offset="1" stop-color="#00BC01"/>
</linearGradient>
<linearGradient id="paint1_linear_1_18262" x1="717.862" y1="96.6935" x2="717.862" y2="133.326" gradientUnits="userSpaceOnUse">
<stop stop-color="#01E003"/>
<stop offset="1" stop-color="#00BC01"/>
</linearGradient>
<linearGradient id="paint2_linear_1_18262" x1="914.03" y1="125.342" x2="914.03" y2="206.932" gradientUnits="userSpaceOnUse">
<stop stop-color="#01E003"/>
<stop offset="1" stop-color="#00BC01"/>
</linearGradient>
<linearGradient id="paint3_linear_1_18262" x1="482.595" y1="152.075" x2="494.4" y2="157.63" gradientUnits="userSpaceOnUse">
<stop stop-color="#A6A7E1"/>
<stop offset="1" stop-color="#B5B6E8"/>
</linearGradient>
</defs>
</svg>
